<?xml version="1.0" standalone="no"?>
<!DOCTYPE svg PUBLIC "-//W3C//DTD SVG 20010904//EN"
 "http://www.w3.org/TR/2001/REC-SVG-20010904/DTD/svg10.dtd">
<svg version="1.0" xmlns="http://www.w3.org/2000/svg"
 width="500.000000pt" height="500.000000pt" viewBox="0 0 500.000000 500.000000"
 preserveAspectRatio="xMidYMid meet">

<g transform="translate(0.000000,500.000000) scale(0.100000,-0.100000)"
fill="#000000" stroke="none">
<path d="M993 4414 c-3 -9 1 -45 9 -79 l15 -63 -40 -12 c-22 -6 -51 -19 -64
-27 -20 -13 -23 -13 -18 -1 3 8 0 20 -8 26 -51 43 -166 -194 -167 -342 0 -98
83 -207 221 -289 53 -31 285 -116 352 -129 14 -2 48 -78 136 -300 l118 -297
-59 -78 c-89 -118 -141 -233 -187 -413 -87 -343 -110 -640 -55 -701 26 -29
113 -44 169 -30 63 16 196 84 377 192 l149 89 26 -58 c48 -111 146 -318 210
-446 35 -71 61 -132 56 -136 -9 -8 -314 -65 -428 -79 -38 -5 -196 -11 -351
-13 -302 -3 -314 -1 -314 47 0 24 -16 35 -38 28 -20 -8 -14 -60 12 -90 l24
-28 289 0 c316 1 388 7 662 61 96 19 175 33 176 32 1 -2 35 -66 75 -143 79
-152 117 -216 134 -227 29 -20 69 -4 187 75 290 193 541 415 670 592 110 152
271 475 366 735 51 140 103 352 103 420 0 86 -11 94 -125 87 -103 -8 -284 -44
-397 -80 l-77 -25 -22 67 c-37 112 -78 182 -148 252 -59 59 -86 76 -261 163
-118 59 -256 118 -348 150 l-153 52 258 170 c142 93 305 207 363 254 58 46
139 103 180 125 62 33 76 45 78 67 3 25 -1 28 -65 47 -100 31 -275 68 -378 80
-279 35 -354 49 -625 119 l-295 76 -185 0 c-116 0 -230 -7 -305 -17 -66 -9
-141 -19 -166 -23 l-45 -6 -18 48 c-32 87 -59 115 -73 78z m813 -139 c49 -9
196 -42 327 -75 130 -33 345 -77 476 -99 215 -36 421 -84 421 -100 0 -3 -17
-16 -38 -27 -20 -12 -82 -61 -137 -108 -136 -117 -626 -451 -660 -449 -5 0
-66 13 -135 27 -76 16 -203 32 -325 41 -266 20 -375 36 -395 60 -10 12 -230
661 -230 680 0 11 98 32 255 54 104 15 345 12 441 -4z m-666 -337 c58 -149
115 -298 127 -329 15 -38 18 -57 10 -54 -232 72 -308 108 -393 187 -85 80
-104 118 -104 205 0 75 5 89 34 94 11 2 40 31 66 63 41 54 113 106 144 106 7
0 59 -122 116 -272z m420 -482 c69 -8 190 -20 270 -25 139 -10 287 -34 303
-50 4 -4 -50 -47 -120 -97 -146 -102 -304 -226 -380 -297 -28 -26 -53 -44 -56
-40 -11 18 -207 514 -207 524 0 7 12 9 33 5 17 -3 88 -12 157 -20z m802 -142
c257 -83 522 -211 616 -298 56 -51 116 -155 136 -232 23 -90 22 -98 -21 -113
-136 -48 -438 -213 -942 -515 l-194 -116 -35 78 c-74 167 -312 743 -312 755 0
34 199 201 449 376 72 51 134 97 137 102 8 13 10 13 166 -37z m-687 -721 c54
-131 129 -310 167 -398 37 -87 68 -165 68 -171 0 -15 -387 -237 -471 -271 -62
-25 -110 -24 -146 2 -16 12 -18 27 -16 122 4 164 21 283 63 448 56 218 87 298
160 408 35 53 67 97 70 97 4 0 51 -107 105 -237z m2087 172 c3 -3 -3 -22 -13
-43 -9 -20 -27 -93 -39 -162 -26 -148 -62 -266 -137 -444 -86 -204 -156 -333
-282 -520 -55 -81 -250 -274 -361 -357 -150 -112 -379 -268 -402 -274 -16 -4
-29 0 -40 12 -20 22 -168 294 -168 308 0 5 55 25 121 42 221 60 399 161 554
317 109 109 201 244 245 357 l32 83 -5 201 c-4 162 -9 214 -26 275 -11 41 -21
82 -21 91 0 19 43 30 300 80 200 38 233 43 242 34z m-588 -177 c46 -158 61
-425 30 -529 -37 -123 -151 -299 -263 -407 -66 -62 -201 -157 -286 -199 -53
-27 -264 -100 -337 -117 -26 -6 -29 -2 -112 167 -94 190 -227 479 -223 482 14
13 508 323 598 376 151 90 529 274 571 278 4 1 14 -23 22 -51z"/>
</g>
</svg>
